PathFileType	4	(X/Y/Z)	D:\Long Term Storage\D'Arcy Smith\Coord8.trc
DataRate	CameraRate	NumFrames	NumMarkers	Units	OrigDataRate	OrigDataStartFrame	OrigNumFrames
120.00	120.00	      146	4	mm	120.00	3853	      5136
Frame#	Time	M1			M2			M3			M4			
		X1	Y1	Z1	X2	Y2	Z2	X3	Y3	Z3	X4	Y4	Z4	

3853	32.100	1055.98950	354.18039	309.05161	1608.47852	351.04718	345.03195							
3854	32.108	1055.09241	344.04071	321.88129	1610.40515	344.56042	362.90649							
3855	32.117	1054.42261	334.39688	335.82224	1612.09167	339.14804	381.77310							
3856	32.125	1053.29395	324.96359	351.44131	1613.98193	334.79886	401.44305							
3857	32.133	1055.05188	316.82986	364.53848	1614.46753	331.71677	422.44458							
3858	32.142	1053.56238	309.53906	382.93707	1615.28186	329.30103	442.09384							
3859	32.150	1052.61414	304.94073	402.32422	1615.99683	328.96957	461.06628							
3860	32.158	1053.11926	300.80923	419.41492	1616.37891	329.60678	479.50647							
3861	32.167	1052.81738	298.93054	441.57852	1616.43982	331.20169	496.67499							
3862	32.175	1054.45410	296.71182	455.68790	1616.28491	333.47427	512.72778							
3863	32.183	1054.50977	296.31247	474.47934	1616.01440	336.71262	525.66602							
3864	32.192	1055.32544	297.99902	492.37436	1614.97607	340.03171	537.64063							
3865	32.200	1056.41907	300.06268	508.92892	1613.30627	343.41202	547.91791							
3866	32.208	1057.49292	303.70453	525.56537	1610.98596	346.63266	556.16962							
3867	32.217	1058.49609	308.05179	540.61267	1608.61096	349.52390	562.41309							
3868	32.225	1059.34973	312.94702	554.52301	1606.14844	352.07245	566.82263							
3869	32.233	1061.22388	317.84985	567.49786	1602.78589	353.95889	569.02026							
3870	32.242	1061.40125	322.03455	578.66473	1599.55237	355.43320	569.43945							
3871	32.250	1062.45581	326.45938	588.09344	1596.65198	356.30875	568.04974							
3872	32.258	1064.52539	330.40482	595.92267	1593.50537	356.59305	564.98553							
3873	32.267	1064.60156	334.07324	601.81384	1589.17615	355.91592	559.42700							
3874	32.275	1066.76514	337.19260	605.34833	1586.70471	355.40292	553.60773							
3875	32.283	1068.13904	339.25809	606.76300	1584.53723	354.80185	546.46545							
3876	32.292	1069.31030	340.61664	605.90320	1581.54590	354.09692	538.23914							
3877	32.300	1068.63171	341.30576	603.75201	1579.49988	353.81290	529.24591							
3878	32.308	1069.99524	341.26825	598.51654	1577.70447	353.59344	519.48975							
3879	32.317	1072.06665	340.42621	590.66968	1576.24194	353.61435	509.13062							
3880	32.325	1073.36121	339.32962	580.57050	1575.28357	354.11679	498.29541							
3881	32.333	1074.20422	337.90933	568.89294	1574.67773	354.88684	487.09741							
3882	32.342	1074.70728	336.81076	555.34094	1575.04065	356.88745	476.67590							
3883	32.350	1073.43030	336.42462	541.92438	1575.18677	358.24057	464.51981							
3884	32.358	1072.07056	338.10010	532.18353	1575.82959	360.08023	452.27130							
3885	32.367	1072.44141	338.62567	514.85065	1576.88660	362.22800	439.90848							
3886	32.375	1074.66699	338.61838	492.77344	1578.15283	364.50879	427.62527							
3887	32.383	1079.44348	341.95889	466.76334	1578.90442	366.29407	413.54437							
3888	32.392	1079.32458	344.24509	448.30325	1580.62048	369.28275	400.88416							
3889	32.400	1079.39929	347.32205	429.65125	1582.01978	372.20102	388.18921							
3890	32.408	1080.37756	352.09302	411.14166	1584.02332	375.46759	375.54123							
3891	32.417	1081.36182	357.58392	391.23370	1585.64746	378.60675	363.16183							
3892	32.425	1082.49915	362.73929	371.43423	1588.22925	382.26331	351.29050							
3893	32.433	1083.60388	369.06387	353.20798	1589.57507	385.41711	339.53830							
3894	32.442	1084.70764	375.72931	335.75031	1591.00635	388.48523	328.29608							
3895	32.450	1084.20728	381.64767	321.26556	1592.43127	391.44757	317.48416							
3896	32.458	1085.34424	388.69489	305.64615	1593.77307	394.36618	307.52454							
3897	32.467	1086.61133	396.04086	290.65073	1595.03796	396.99979	298.37265							
3898	32.475	1088.01782	403.05356	276.47247	1597.95972	399.97314	290.30087							
3899	32.483	1089.18616	409.99933	264.11374	1599.36768	402.29706	283.03632							
3900	32.492	1090.82080	416.83456	249.77066	1600.62073	404.25473	276.51474							
3901	32.500	1091.67578	422.44360	240.56078	1601.77344	405.67172	270.92438							
3902	32.508	1092.15100	427.52707	232.67532	1602.90735	406.68100	266.22800							
3903	32.517	1092.39734	431.41354	226.26437	1603.90991	406.87091	262.42349							
3904	32.525	1092.33606	434.38104	221.38890	1605.05371	406.71753	259.72183							
3905	32.533	1092.04529	435.98428	218.10982	1605.82117	405.67667	257.90405							
3906	32.542	1091.45544	436.29034	216.26331	1606.60205	404.03299	257.27829							
3907	32.550	1091.14160	435.91345	215.55450	1607.26428	401.78973	257.69843							
3908	32.558	1089.90063	433.55316	216.54633	1607.51306	398.73514	259.39621							
3909	32.567	1088.40503	429.86023	218.96124	1607.65405	395.06747	262.04590							
3910	32.575	1086.60144	424.83514	222.72668	1607.87561	390.97943	266.03488							
3911	32.583	1084.57617	418.67929	227.78175	1607.62024	386.19543	271.07706							
3912	32.592	1082.43762	411.67700	234.06979	1607.37488	380.92441	277.34531							
3913	32.600	1080.12219	403.76880	241.87109	1607.09924	375.01312	285.23215							
3914	32.608	1077.41675	394.72491	252.41643	1607.06958	369.02649	294.85800							
3915	32.617	1075.03662	385.65564	262.62289	1607.04529	362.60135	306.36563							
3916	32.625	1072.93262	376.03793	273.78046	1608.21130	357.31720	320.40756							
3917	32.633	1070.44397	366.30719	286.23141	1608.06812	351.02820	336.17255							
3918	32.642	1066.42114	355.99161	301.78989	1608.33521	345.63867	354.04330							
3919	32.650	1063.77966	346.89725	316.37347	1607.52197	339.97614	372.71182							
3920	32.658	1061.92126	337.52661	332.36945	1607.71143	336.39529	392.92053							
3921	32.667	1060.24573	329.35327	348.02701	1609.40527	336.08664	414.05823							
3922	32.675	1057.91370	322.30215	366.99033	1609.35962	334.43430	435.71933							
3923	32.683	1056.14233	316.01099	384.05502	1610.65442	334.90509	456.25540							
3924	32.692	1052.38721	312.38928	407.05359	1611.24622	335.82587	475.78281							
3925	32.700	1051.12292	308.02991	422.22198	1611.85291	338.21356	494.21777							
3926	32.708	1049.24390	305.90802	440.30621	1612.29932	340.18140	510.14551							
3927	32.717	1047.50208	304.74905	458.72076	1612.49475	343.84216	524.91760							
3928	32.725	1045.56226	305.17490	476.42624	1612.86792	347.48407	537.52484							
3929	32.733	1044.13147	306.44577	493.01352	1612.92468	351.11292	547.84180							
3930	32.742	1042.45337	308.64551	509.01968	1612.71875	354.35648	555.86389							
3931	32.750	1041.62695	311.60999	522.23962	1612.38892	357.32538	561.64734							
3932	32.758	1040.54968	314.82748	534.74579	1611.69116	359.56787	565.26007							
3933	32.767	1039.83191	317.50208	545.39551	1610.85254	361.11111	566.51074							
3934	32.775	1039.33838	320.54266	553.60468	1609.96497	362.03528	565.80798							
3935	32.783	1039.47571	322.87180	559.53119	1608.96887	362.38751	562.99829							
3936	32.792	1039.34656	325.20789	563.59698	1608.02539	362.19333	558.57336							
3937	32.800	1040.06738	326.46475	565.08618	1606.40320	361.75000	552.50360							
3938	32.808	1040.60132	327.47186	565.07690	1605.17065	360.94403	545.13867							
3939	32.817	1042.11047	327.79535	562.78064	1602.83472	359.16162	536.21259							
3940	32.825	1043.22388	327.63199	558.69977	1601.15442	358.36819	526.85876							
3941	32.833	1043.04529	327.45303	553.93280	1600.53601	360.20117	517.23566							
3942	32.842	1044.71326	327.49741	545.58997	1598.47632	359.48874	506.54904							
3943	32.850	1046.22107	327.38242	537.28296	1595.67456	359.18011	495.66055							
3944	32.858	1048.74341	327.30136	527.46240	1594.58801	359.85938	484.54135							
3945	32.867	1051.17468	327.61124	515.01312	1593.55444	361.23178	473.95078							
3946	32.875	1052.61902	329.24612	501.98422	1592.89063	362.83438	462.53482							
3947	32.883	1053.56189	330.84952	490.67838	1591.31763	364.59354	450.92996							
3948	32.892	1056.15247	333.26422	477.18771	1590.38220	366.64371	439.07211							
3949	32.900	1059.57483	336.57010	462.98428	1589.81384	369.13516	427.53894							
3950	32.908	1060.60681	339.64325	449.82297	1589.22266	371.83459	414.94199							
3951	32.917	1061.32971	343.85760	440.92490	1589.04614	374.94519	403.30026							
3952	32.925	1063.63049	348.76169	427.04453	1588.93958	378.25452	391.81116							
3953	32.933	1066.26746	354.06775	412.69968	1589.09802	381.85312	380.43808							
3954	32.942	1070.91931	358.86938	393.81113	1589.11841	385.47113	369.42673							
3955	32.950	1074.77112	364.63327	377.76898	1589.23401	389.15381	358.51126							
3956	32.958	1076.19775	371.25763	364.24182	1589.29065	392.87894	347.89227							
3957	32.967	1079.28796	377.47052	350.42297	1589.23657	396.50150	337.58844							
3958	32.975	1081.94373	384.14255	337.36789	1589.36316	400.10999	327.52689							
3959	32.983	1084.18250	390.74078	324.74234	1589.38977	403.65948	317.73746							
3960	32.992	1086.47595	397.33093	312.19528	1589.46655	407.03891	308.32068							
3961	33.000	1089.15295	403.76364	299.98724	1589.48340	410.20956	299.27567							
3962	33.008	1090.79041	410.24359	289.35666	1589.54626	413.11343	290.46387							
3963	33.017	1093.50464	416.10483	278.51828	1589.59314	415.70071	282.19394							
3964	33.025	1095.32483	421.52982	269.19354	1589.56372	417.96576	274.38138							
3965	33.033	1096.80798	426.24371	260.99524	1589.59180	419.85007	267.04611							
3966	33.042	1098.76758	430.35144	251.34114	1589.69958	421.35870	260.49796							
3967	33.050	1099.60620	433.54446	245.45328	1589.53711	422.46414	254.86572							
3968	33.058	1100.27563	435.63174	240.75571	1589.07422	422.51181	250.95879							
3969	33.067	1100.71924	436.81146	237.17462	1589.04614	422.54001	247.41068							
3970	33.075	1100.78040	436.64612	235.15976	1589.29883	421.76959	244.91750							
3971	33.083	1100.39087	435.57339	234.25633	1589.06421	420.66290	243.54161							
3972	33.092	1100.42273	433.62332	234.58154	1590.22595	418.17212	243.60643							
3973	33.100	1099.26758	429.51465	236.63821	1591.11646	415.05630	245.05965							
3974	33.108	1097.78027	424.17209	240.14420	1592.24500	411.14581	248.14221							
3975	33.117	1096.34058	417.80130	244.77519	1593.78003	406.78354	252.10225							
3976	33.125	1094.47717	410.24634	249.55722	1595.13391	401.38824	258.63461							
3977	33.133	1092.08899	401.92682	258.75040	1596.51892	395.93338	266.84387							
3978	33.142	1090.00879	393.04388	266.79547	1600.32410	389.69818	277.14227							
3979	33.150	1084.00403	382.69003	280.45963	1602.54175	383.20459	288.82162							
3980	33.158	1083.35889	372.91483	288.86514	1604.99414	376.58832	301.74945							
3981	33.167	1079.45117	363.43329	301.45782	1607.31616	369.88443	315.70947							
3982	33.175	1077.68201	353.42651	313.81638	1609.53723	363.53052	330.52988							
3983	33.183	1075.88916	343.41504	324.99887	1611.84412	357.52707	346.07382							
3984	33.192	1073.39880	334.15717	339.79736	1614.09985	351.90762	362.26794							
3985	33.200	1070.95972	325.13718	354.24307	1616.42688	346.97980	378.85236							
3986	33.208	1069.17224	316.74594	368.72940	1617.76282	342.00711	396.02124							
3987	33.217	1066.52515	309.69839	384.55414	1619.22949	338.68140	413.27005							
3988	33.225	1064.29285	302.81067	400.95142	1620.77722	336.47763	431.33899							
3989	33.233	1062.23486	297.64929	418.19174	1621.62915	334.94205	448.33569							
3990	33.242	1060.46729	294.10345	434.03909	1621.94849	333.99136	464.37836							
3991	33.250	1057.80042	291.46780	451.22720	1621.36963	333.95975	479.34756							
3992	33.258	1055.58057	290.41144	468.35355	1620.26160	333.52048	492.84222							
3993	33.267	1053.15881	290.77734	486.00806	1619.15479	334.65979	505.67645							
3994	33.275	1050.40723	292.63583	503.03973	1617.20374	336.03802	513.35773							
3995	33.283	1047.68091	295.73746	519.49994	1615.16541	337.78299	520.91010							
3996	33.292	1045.03040	299.68961	534.79626	1613.08167	339.33420	526.02161							
3997	33.300	1042.27466	303.77762	549.80768	1611.32507	340.79724	528.57080							
3998	33.308	1039.51563	309.14774	563.05457	1609.66321	341.93134	528.69696							
